<svg viewBox="0 0 512 512" xmlns="http://www.w3.org/2000/svg"><g id="Layer_1" data-name="Layer 1"><path d="m499.428 304.24v23.431l-392.048 160.88-94.808-40.792v-23.431l94.808 40.792zm-89.952 15 45.449-18.492v-260l-45.449-17.3-45.448 17.3 45.448 18.493zm-75.668 30.406 45.449-18.492v-211.677l-45.448-17.305-45.449 17.305 45.449 18.492zm-75.668 31.432 45.448-18.492v-157.186l-45.449-17.305-45.448 17.305 45.449 18.492zm-75.669 30.407 45.449-18.493v-106.152l-45.449-17.3-45.448 17.3 45.448 18.492zm-77.046 30.35 45.448-18.493v-68.685l-45.448-17.3-45.449 17.3 45.449 18.492z" fill="#cbf3f9"/><path d="m505.419 304.24c0-.051.009-.1.008-.151a6 6 0 0 0 -4-5.507l-40.5-14.293v-243.536a5.962 5.962 0 0 0 -3.867-5.6l-45.447-17.31a6 6 0 0 0 -4.269 0l-45.444 17.308a5.96 5.96 0 0 0 -3.868 5.6v64.22l-22.085-8.409a6 6 0 0 0 -4.269 0l-45.446 17.31a5.966 5.966 0 0 0 -3.868 5.6v71.428l-22.085-8.409a5.993 5.993 0 0 0 -4.269 0l-45.452 17.309a5.96 5.96 0 0 0 -3.868 5.6v66.937l-22.084-8.408a5.993 5.993 0 0 0 -4.269 0l-45.447 17.308a5.966 5.966 0 0 0 -3.868 5.6v53.84l-23.462-8.934a6.006 6.006 0 0 0 -4.27 0l-45.447 17.31a5.958 5.958 0 0 0 -3.867 5.6v47.847l-43.5 16.21a6 6 0 0 0 -3.9 5.473c0 .05.008.1.008.149h-.01v23.431a6 6 0 0 0 3.629 5.512l94.809 40.791a6 6 0 0 0 4.648.04l392.046-160.885a6 6 0 0 0 3.723-5.551v-23.43zm-95.942-274.371 29.072 11.069-29.072 11.83-29.077-11.83zm39.448 19.8v247.045l-33.448 13.61v-247.042zm-78.9 0 33.45 13.61v247.045l-18.22-7.414v-183.433a5.968 5.968 0 0 0 -3.867-5.6l-11.363-4.332zm-36.219 58.92 29.073 11.07-29.073 11.829-29.073-11.829zm39.449 19.8v198.732l-33.447 13.609v-198.725zm-78.9 0 33.449 13.609v198.732l-18.22-7.413v-127.917a5.958 5.958 0 0 0 -3.867-5.6l-11.362-4.332zm-36.215 66.126 29.072 11.069-29.072 11.829-29.074-11.829zm39.448 19.8v144.235l-33.448 13.609v-144.232zm-78.9 0 33.45 13.61v144.234l-18.22-7.413v-77.907a5.964 5.964 0 0 0 -3.867-5.6l-11.361-4.339zm-36.218 61.638 29.072 11.069-29.072 11.829-29.07-11.826zm39.448 19.8v93.2l-33.448 13.609v-93.2zm-78.9 0 33.45 13.611v93.2l-19.6-7.974v-39.933a6 6 0 0 0 -2.651-4.979 11.142 11.142 0 0 0 -1.214-.629l-9.986-3.8zm-31.6 81.428 33.448-13.61v55.73l-33.448 13.609zm-6-33.413 29.082 11.074-29.072 11.83-29.073-11.83zm-39.449 19.8 33.449 13.61v55.73l-33.449-13.61zm-12 51.727v8.039a6 6 0 0 0 3.738 5.557l45.449 18.493a5.907 5.907 0 0 0 4.518-.014l45.461-18.47a6 6 0 0 0 3.738-5.557v-15.796l23.344 9.481a5.9 5.9 0 0 0 4.516.014l45.449-18.492a6 6 0 0 0 3.738-5.558v-15.292l21.964 8.92a5.9 5.9 0 0 0 4.517.015l45.449-18.492a6 6 0 0 0 3.738-5.558v-16.313l21.958 8.935.006-.014a5.9 5.9 0 0 0 4.517.014l45.45-18.493a6 6 0 0 0 3.738-5.557v-15.291l21.964 8.92a5.9 5.9 0 0 0 4.517.015l45.449-18.493a6 6 0 0 0 3.738-5.558v-3.735l21.671 7.647-375.161 153.95-78.753-33.884zm53.459 66.74-88.857-38.226v-10.367l86.438 37.19a6 6 0 0 0 4.648.039l383.772-157.484v10.46z" fill="#6cf"/></g></svg>