<?xml version="1.0"?>
<svg xmlns="http://www.w3.org/2000/svg" id="icons" viewBox="0 0 48 48" width="512" height="512"><path d="M45.78,11.37A1,1,0,0,0,45,11H8l-.11,0L7,6.79A1,1,0,0,0,6,6H2A1,1,0,0,0,2,8H5.19l5.15,24a5,5,0,0,0,4.25,3.9A3.93,3.93,0,0,0,14,38a4,4,0,0,0,8,0,3.91,3.91,0,0,0-.56-2h8.12A3.91,3.91,0,0,0,29,38a4,4,0,0,0,8,0,3.91,3.91,0,0,0-.56-2H40a1,1,0,0,0,0-2H15.24a3,3,0,0,1-2.94-2.38L12.17,31H41a1,1,0,0,0,1-.78l4-18A1,1,0,0,0,45.78,11.37ZM20,38a2,2,0,1,1-2-2A2,2,0,0,1,20,38Zm15,0a2,2,0,1,1-2-2A2,2,0,0,1,35,38Zm-.12-25-.78,7H27V13ZM27,22h6.88l-.78,7H27Zm-2,7H17.89l-.77-7H25Zm0-9H16.89l-.77-7H25ZM14.11,13l.77,7H9.81l-1.5-7Zm-3.87,9h4.87l.77,7H11.74Zm30,7H35.12l.78-7h5.85Zm2-9A1.06,1.06,0,0,0,42,20H36.12l.78-7h6.85Z"/></svg>
